<?xml version="1.0" encoding="UTF-8" standalone="no"?>
<svg
   xmlns:dc="http://purl.org/dc/elements/1.1/"
   xmlns:cc="http://creativecommons.org/ns#"
   xmlns:rdf="http://www.w3.org/1999/02/22-rdf-syntax-ns#"
   xmlns:svg="http://www.w3.org/2000/svg"
   xmlns="http://www.w3.org/2000/svg"
   viewBox="0 0 806.18665 230.17332"
   height="230.17332"
   width="806.18665"
   xml:space="preserve"
   id="svg2"
   version="1.1"><metadata
     id="metadata8"><rdf:RDF><cc:Work
         rdf:about=""><dc:format>image/svg+xml</dc:format><dc:type
           rdf:resource="http://purl.org/dc/dcmitype/StillImage" /></cc:Work></rdf:RDF></metadata><defs
     id="defs6" /><g
     transform="matrix(1.3333333,0,0,-1.3333333,0,230.17333)"
     id="g10"><g
       transform="scale(0.1)"
       id="g12"><path
         id="path14"
         style="fill:#100f0d;fill-opacity:1;fill-rule:nonzero;stroke:none"
         d="m 360,322.398 h 385.297 c 142.203,0 266.003,47.301 266.003,222.301 0,172.602 -105.499,241.196 -259.097,241.196 H 360 Z m 0,716.402 h 364.602 c 126.097,0 220,59.1 220,201 0,160.8 -119.204,193.9 -247.704,193.9 H 360 Z M 0,1722.1 h 770.496 c 311.904,0 522.904,-104 522.904,-418.5 0,-165.5 -80,-281.4 -222.4,-352.299 200,-59.102 300,-217.504 300,-428 C 1371,180.5 1088.9,33.8984 793.102,33.8984 H 0 V 1722.1" /><path
         id="path16"
         style="fill:#100f0d;fill-opacity:1;fill-rule:nonzero;stroke:none"
         d="m 2583.8,33.8984 h -310 V 205.801 h -6.9 C 2191.08,77.9805 2053.22,-0.109375 1904.6,0.601563 1558.3,0.601563 1471.2,203.5 1471.2,508.898 V 1267.8 h 325.6 V 571.199 c 0,-202.898 57.3,-303.097 208.7,-303.097 176.6,0 252.3,102.597 252.3,353.199 V 1267.8 h 325.6 V 33.8984 h 0.4" /><path
         id="path18"
         style="fill:#100f0d;fill-opacity:1;fill-rule:nonzero;stroke:none"
         d="m 4188.7,1038 c -227.8,0 -306.1,-190.004 -306.1,-390.898 0,-191.903 90.6,-393.204 306.1,-393.204 230,0 298.8,194.204 298.8,395.602 0,199.102 -73.5,388.6 -298.8,388.6 z m 303.7,-848 h -4.9 C 4406.7,57.3008 4264.6,0 4103,0 c -382.1,0 -568.2,317.398 -568.2,656.199 0,329.301 188.6,634.901 560.8,634.901 149.4,0 296.3,-61.6 374.7,-182.4 h 4.91 v 616.4 H 4823 V 33.6992 H 4492.4 V 190" /><path
         id="path20"
         style="fill:#100f0d;fill-opacity:1;fill-rule:nonzero;stroke:none"
         d="m 4921.3,1427.1 h 329 v 299.203 h -329 z" /><path
         id="path22"
         style="fill:#100f0d;fill-opacity:1;fill-rule:nonzero;stroke:none"
         d="m 4921.3,32.8008 h 329 v 1234.4 h -329 z" /><path
         id="path24"
         style="fill:#100f0d;fill-opacity:1;fill-rule:nonzero;stroke:none"
         d="m 5347.8,1038.5 v 228.6 h 172.7 v 350.7 h 323.1 V 1267.1 H 6046 v -228.6 h -202.4 v -660 c 0,-50.898 6.8,-82.699 19.4,-95.5 12.6,-12.801 53.2,-19 119.4,-19 10,0 20,0 31.5,1.199 10.88,0.332 21.73,1.262 32.5,2.801 V 24.1992 l -154.7,-7.3008 c -154.4,-5 -260,21.2032 -315.6,80 -36.9,37.2036 -55.6,94.4026 -55.6,172.9026 V 1038.5 h -172.7" /><path
         id="path26"
         style="fill:#100f0d;fill-opacity:1;fill-rule:nonzero;stroke:none"
         d="m 3109.2,35.5 h 329 v 1690.6 h -329 z" /><path
         id="path28"
         style="fill:#100f0d;fill-opacity:1;fill-rule:nonzero;stroke:none"
         d="m 2681.3,1427.1 h 329 v 299.203 h -329 z" /><path
         id="path30"
         style="fill:#100f0d;fill-opacity:1;fill-rule:nonzero;stroke:none"
         d="m 2682.2,32.8984 h 329 v 1234.4 h -329 z" /></g></g></svg>